<svg id="app-store" xmlns="http://www.w3.org/2000/svg" width="134" height="43" viewBox="0 0 134 43">
  <g id="Tracciato_33784" data-name="Tracciato 33784" transform="translate(-0.873 -0.875)">
    <path d="M 125.0361862182617 43.375 L 9.477499961853027 43.37273406982422 C 9.152850151062012 43.37273406982422 8.82034969329834 43.36885070800781 8.460999488830566 43.36083221435547 C 7.771366119384766 43.35193252563477 7.081266403198242 43.29236602783203 6.405149459838867 43.18370056152344 C 5.802749633789062 43.08105087280273 5.216349601745605 42.88921737670898 4.66683292388916 42.61431503295898 C 4.126132965087891 42.34356689453125 3.635483026504517 41.99038314819336 3.208699703216553 41.56468200683594 L 3.206382989883423 41.5623664855957 L 3.204033136367798 41.56008148193359 C 2.771899700164795 41.14018249511719 2.414299726486206 40.65615081787109 2.141199588775635 40.12143325805664 C 1.863283038139343 39.5797004699707 1.671933054924011 39.00201797485352 1.572049736976624 38.40361785888672 C 1.45966637134552 37.73381805419922 1.398299694061279 37.05035018920898 1.389616370201111 36.37181854248047 L 1.389549732208252 36.36740112304688 L 1.389416337013245 36.36299896240234 C 1.382629990577698 36.14021301269531 1.373634934425354 35.40073394775391 1.373016357421875 35.34865570068359 L 1.373016357421875 9.38652515411377 C 1.373790621757507 9.327274322509766 1.383284449577332 8.606456756591797 1.389482975006104 8.392816543579102 L 1.389616370201111 8.388633728027344 L 1.389666318893433 8.38444995880127 C 1.397983074188232 7.707066535949707 1.458983063697815 7.024766445159912 1.570949673652649 6.356483459472656 C 1.671116352081299 5.755816459655762 1.862733006477356 5.176149845123291 2.14051628112793 4.633183479309082 C 2.413233041763306 4.097616672515869 2.769266366958618 3.612649917602539 3.199132919311523 3.19088339805603 C 3.631783008575439 2.761933326721191 4.125549793243408 2.405816555023193 4.668599605560303 2.130599975585938 C 5.213983058929443 1.858016610145569 5.798699855804443 1.667733311653137 6.404016494750977 1.566266655921936 C 7.079416275024414 1.457016706466675 7.771699905395508 1.397116661071777 8.458799362182617 1.388700008392334 L 9.481019020080566 1.375 L 126.2624359130859 1.375 L 127.2931823730469 1.389233350753784 C 127.9746856689453 1.397250056266785 128.6602325439453 1.456583380699158 129.3318176269531 1.565583348274231 C 129.9405670166016 1.66786253452301 130.5316619873047 1.85945451259613 131.0859985351562 2.134576320648193 C 132.1777496337891 2.691787242889404 133.0508728027344 3.557508945465088 133.6111297607422 4.638299942016602 C 133.8824310302734 5.173516750335693 134.0711669921875 5.748650074005127 134.1699829101562 6.343716621398926 C 134.2836303710938 7.019583225250244 134.3477783203125 7.7086501121521 134.3608093261719 8.392783164978027 C 134.3640289306641 8.704183578491211 134.3640289306641 9.04973316192627 134.3640289306641 9.383883476257324 L 134.3640289306641 9.389216423034668 L 134.3641510009766 9.394533157348633 C 134.3730163574219 9.810750007629395 134.3730163574219 10.19954967498779 134.3730163574219 10.61118316650391 L 134.3730163574219 34.13761520385742 C 134.3730163574219 34.5496826171875 134.3730163574219 34.93891525268555 134.3641510009766 35.33509826660156 L 134.3640289306641 35.3406982421875 L 134.3640289306641 35.34628295898438 C 134.3640289306641 35.704833984375 134.3640289306641 36.04348373413086 134.3596343994141 36.38491821289062 C 134.3469390869141 37.05316543579102 134.2839202880859 37.72943496704102 134.1723480224609 38.39189910888672 C 134.0740051269531 38.99769973754883 133.8836669921875 39.57998275756836 133.6061401367188 40.12548446655273 C 133.33251953125 40.65161514282227 132.9756927490234 41.13318252563477 132.5475921630859 41.55288314819336 L 132.5456695556641 41.55478286743164 L 132.5437316894531 41.55670166015625 C 132.1165313720703 41.98473358154297 131.625 42.34000015258789 131.0827941894531 42.61261749267578 C 130.5304870605469 42.88930130004883 129.9402618408203 43.08173370361328 129.3291931152344 43.18426513671875 C 128.6562652587891 43.29298400878906 127.9664154052734 43.35253143310547 127.2817993164062 43.36074829101562 L 127.279052734375 43.36078262329102 L 127.2763137817383 43.3608512878418 C 126.9331817626953 43.36873245239258 126.5939483642578 43.37273406982422 126.2679977416992 43.37273406982422 L 125.0352478027344 43.375 L 125.0361862182617 43.375 Z" stroke="none"/>
    <path d="M 125.0361785888672 42.875 L 125.0343246459961 42.875 L 126.2680130004883 42.87274551391602 C 126.5894927978516 42.87274551391602 126.9248733520508 42.86878204345703 127.2648696899414 42.86098098754883 L 127.275764465332 42.86080169677734 C 127.9349822998047 42.85286331176758 128.5991363525391 42.79560470581055 129.2497863769531 42.69058609008789 C 129.810546875 42.59617233276367 130.3520812988281 42.41942977905273 130.8582000732422 42.16590881347656 C 131.3524932861328 41.91736221313477 131.8005218505859 41.59356307983398 132.1898345947266 41.2034912109375 L 132.1975555419922 41.19583511352539 C 132.5867919921875 40.81423568725586 132.9113616943359 40.37666702270508 133.1622924804688 39.89519500732422 C 133.4153747558594 39.39687728881836 133.5889892578125 38.86514282226562 133.6783294677734 38.3147087097168 L 133.6792907714844 38.30889129638672 C 133.7866516113281 37.6712760925293 133.8473663330078 37.02037811279297 133.8597412109375 36.37423706054688 C 133.8640289306641 36.03745269775391 133.8640289306641 35.70166015625 133.8640289306641 35.34627151489258 L 133.8642883300781 35.32392883300781 C 133.8730163574219 34.93332672119141 133.8730163574219 34.54681777954102 133.8730163574219 34.13761901855469 L 133.8730163574219 10.61118221282959 C 133.8730163574219 10.20229053497314 133.8730163574219 9.816072463989258 133.8642578125 9.405181884765625 L 133.8640289306641 9.383872985839844 C 133.8640289306641 9.052647590637207 133.8640289306641 8.710207939147949 133.86083984375 8.398303031921387 C 133.8480987548828 7.739976406097412 133.7862701416016 7.076976299285889 133.6767425537109 6.425636291503906 C 133.5865020751953 5.882311344146729 133.4143829345703 5.357091426849365 133.1651916503906 4.86451244354248 C 132.6534576416016 3.879185199737549 131.8565368652344 3.089628458023071 130.8602752685547 2.580739974975586 C 130.3515014648438 2.328652143478394 129.8090515136719 2.152962923049927 129.2479553222656 2.058523654937744 C 128.6020965576172 1.953866839408875 127.9428253173828 1.896912574768066 127.2863082885742 1.889181852340698 L 126.2552947998047 1.875 L 9.484645843505859 1.875 L 8.464925765991211 1.888654589653015 C 7.803018569946289 1.896756649017334 7.136198043823242 1.954419493675232 6.482824325561523 2.060028791427612 C 5.928422927856445 2.15334677696228 5.392806053161621 2.3277747631073 4.890873432159424 2.578481674194336 C 4.395886421203613 2.829838991165161 3.945794820785522 3.154685974121094 3.553052663803101 3.544109106063843 L 3.549288988113403 3.547818183898926 C 3.158125400543213 3.931600093841553 2.834198236465454 4.372817993164062 2.585634469985962 4.860945224761963 C 2.331289052963257 5.358054637908936 2.155852794647217 5.888782024383545 2.0640709400177 6.439109325408936 C 1.956343650817871 7.082145690917969 1.897652745246887 7.738708972930908 1.889634490013123 8.390600204467773 L 1.889289140701294 8.407436370849609 C 1.883265852928162 8.614055633544922 1.874032020568848 9.312902450561523 1.873016357421875 9.389925003051758 L 1.873016357421875 35.34590911865234 C 1.873902678489685 35.41928863525391 1.882648468017578 36.13321685791016 1.889198184013367 36.34778213500977 L 1.889561772346497 36.36539840698242 C 1.897943615913391 37.01850891113281 1.956979990005493 37.67629241943359 2.065198183059692 38.32127380371094 C 2.156598091125488 38.86878204345703 2.331707239151001 39.39738082885742 2.58647084236145 39.89400100708008 C 2.834616422653198 40.3798713684082 3.159634590148926 40.81978225708008 3.552489042282104 41.20150756835938 L 3.561816453933716 41.21068954467773 C 3.950689077377319 41.59858322143555 4.397834300994873 41.92043685913086 4.890543460845947 42.16714477539062 C 5.394715309143066 42.41936874389648 5.932667255401611 42.5955696105957 6.48953914642334 42.69084548950195 C 7.140045166015625 42.79513549804688 7.803873538970947 42.85231399536133 8.462779998779297 42.86081695556641 L 8.472088813781738 42.86098098754883 C 8.828397750854492 42.86889266967773 9.157270431518555 42.87274551391602 9.477507591247559 42.87274551391602 L 125.0361785888672 42.875 M 125.0361633300781 43.875 L 9.477489471435547 43.87274551391602 C 9.131252288818359 43.87274551391602 8.793379783630371 43.86836242675781 8.449871063232422 43.86072540283203 C 7.738252639770508 43.85154724121094 7.028289318084717 43.79025268554688 6.32581615447998 43.67736434936523 C 5.670798301696777 43.56578063964844 5.036252498626709 43.35820007324219 4.443125247955322 43.06147384643555 C 3.855434656143188 42.7672004699707 3.319416284561157 42.38134384155273 2.855598211288452 41.9186897277832 C 2.38507080078125 41.46147155761719 1.993325471878052 40.93118286132812 1.695907235145569 40.34885406494141 C 1.395216345787048 39.76272583007812 1.18710732460022 39.13445281982422 1.078852772712708 38.48592758178711 C 0.9619436264038086 37.78912734985352 0.8987072706222534 37.08452606201172 0.8896527290344238 36.37821960449219 C 0.8824345469474792 36.14114379882812 0.873016357421875 35.35177993774414 0.873016357421875 35.35177993774414 L 0.873016357421875 9.383872985839844 C 0.873016357421875 9.383872985839844 0.8830527067184448 8.606654167175293 0.8897072672843933 8.37830924987793 C 0.8983799815177917 7.673127174377441 0.961252748966217 6.969618320465088 1.077816367149353 6.273872852325439 C 1.186270952224731 5.623581886291504 1.394525408744812 4.993509292602539 1.695398211479187 4.405454635620117 C 1.991725444793701 3.823508977890015 2.381289005279541 3.292836427688599 2.84896183013916 2.834000110626221 C 3.31614351272583 2.370781898498535 3.853870868682861 1.982945442199707 4.442561626434326 1.684599995613098 C 5.034343719482422 1.38883638381958 5.667670726776123 1.182709097862244 6.321380138397217 1.073145508766174 C 7.026143550872803 0.9591272473335266 7.738580226898193 0.8974727392196655 8.452671051025391 0.8887272477149963 L 9.478053092956543 0.875 L 126.2624359130859 0.875 L 127.3000564575195 0.8892727494239807 C 128.0076751708984 0.897599995136261 128.713623046875 0.958690881729126 129.4119262695312 1.072054505348206 C 130.0722351074219 1.182981848716736 130.712158203125 1.39054548740387 131.3107147216797 1.687909126281738 C 132.4900207519531 2.289145469665527 133.4496765136719 3.240345478057861 134.0550384521484 4.408199787139893 C 134.3511047363281 4.992199897766113 134.5561676025391 5.617127418518066 134.6632385253906 6.261799812316895 C 134.7811737060547 6.963254451751709 134.8471832275391 7.672290802001953 134.8607482910156 8.383255004882812 C 134.8640289306641 8.701600074768066 134.8640289306641 9.043563842773438 134.8640289306641 9.383872985839844 C 134.8730163574219 9.805418014526367 134.8730163574219 10.20665454864502 134.8730163574219 10.61118221282959 L 134.8730163574219 34.13761901855469 C 134.8730163574219 34.54600143432617 134.8730163574219 34.94450759887695 134.8640289306641 35.34627151489258 C 134.8640289306641 35.71183776855469 134.8640289306641 36.04671096801758 134.8596038818359 36.39136505126953 C 134.8463287353516 37.08965301513672 134.7814178466797 37.78601837158203 134.6654205322266 38.47492599487305 C 134.5594024658203 39.12810897827148 134.3524169921875 39.76129150390625 134.0517578125 40.35221862792969 C 133.7522277832031 40.92825317382812 133.3627471923828 41.45392608642578 132.8976287841797 41.90990829467773 C 132.4333953857422 42.37505340576172 131.8964385986328 42.76316452026367 131.3074035644531 43.059326171875 C 130.7105255126953 43.35832595825195 130.0715484619141 43.56669235229492 129.4119262695312 43.67736434936523 C 128.7094879150391 43.79087448120117 127.9994506835938 43.85216522216797 127.2877960205078 43.86072540283203 C 126.9549407958984 43.86836242675781 126.6064147949219 43.87274551391602 126.2680130004883 43.87274551391602 L 125.0361633300781 43.875 Z" stroke="none" fill="#a6a6a6"/>
  </g>
  <path id="_Path_" data-name="&lt;Path&gt;" d="M26.739,21.086a5.554,5.554,0,0,1,2.67-4.667,5.752,5.752,0,0,0-4.523-2.425c-1.9-.2-3.748,1.13-4.717,1.13-.988,0-2.481-1.11-4.089-1.077a6.029,6.029,0,0,0-5.069,3.066c-2.192,3.764-.557,9.3,1.542,12.339,1.05,1.49,2.278,3.154,3.884,3.1,1.572-.065,2.159-.994,4.056-.994,1.88,0,2.43.994,4.069.957,1.687-.027,2.749-1.5,3.763-3a12.282,12.282,0,0,0,1.721-3.476,5.375,5.375,0,0,1-3.308-4.945Z" transform="translate(0.339 0.751)" fill="#fff"/>
  <path id="_Path_2" data-name="&lt;Path&gt;" d="M22.47,12.644A5.448,5.448,0,0,0,23.733,8.72,5.632,5.632,0,0,0,20.1,10.586a5.186,5.186,0,0,0-1.3,3.779A4.659,4.659,0,0,0,22.47,12.644Z" transform="translate(1.513 0.099)" fill="#fff"/>
  <path id="Tracciato_33785" data-name="Tracciato 33785" d="M43.351,28.264H37.987L36.7,32.038H34.427l5.08-13.959h2.36l5.08,13.959H44.638Zm-4.808-1.741h4.252L40.7,20.4H40.64Z" transform="translate(3.975 1.26)" fill="#fff"/>
  <path id="Tracciato_33786" data-name="Tracciato 33786" d="M56.3,26.544c0,3.163-1.706,5.195-4.281,5.195a3.484,3.484,0,0,1-3.228-1.781h-.049V35H46.631V21.454H48.67v1.693h.039a3.646,3.646,0,0,1,3.267-1.8C54.579,21.348,56.3,23.39,56.3,26.544Zm-2.165,0c0-2.061-1.073-3.415-2.711-3.415-1.609,0-2.691,1.383-2.691,3.415,0,2.051,1.082,3.424,2.691,3.424,1.638,0,2.711-1.345,2.711-3.424Z" transform="translate(5.601 1.666)" fill="#fff"/>
  <path id="Tracciato_33787" data-name="Tracciato 33787" d="M66.26,26.544c0,3.163-1.706,5.195-4.281,5.195a3.484,3.484,0,0,1-3.228-1.781H58.7V35H56.6V21.454h2.038v1.693h.039a3.646,3.646,0,0,1,3.267-1.8C64.544,21.348,66.26,23.39,66.26,26.544Zm-2.165,0c0-2.061-1.073-3.415-2.711-3.415-1.609,0-2.691,1.383-2.691,3.415,0,2.051,1.082,3.424,2.691,3.424,1.638,0,2.711-1.345,2.711-3.424Z" transform="translate(6.927 1.666)" fill="#fff"/>
  <path id="Tracciato_33788" data-name="Tracciato 33788" d="M71.964,28.174c.156,1.384,1.512,2.293,3.364,2.293,1.775,0,3.052-.909,3.052-2.157,0-1.084-.77-1.732-2.594-2.177L73.962,25.7c-2.584-.619-3.783-1.818-3.783-3.763,0-2.409,2.116-4.063,5.12-4.063,2.973,0,5.012,1.654,5.08,4.063H78.254c-.127-1.393-1.288-2.234-2.985-2.234s-2.857.851-2.857,2.089c0,.987.741,1.568,2.555,2.012l1.55.378c2.887.677,4.087,1.828,4.087,3.87,0,2.612-2.1,4.247-5.432,4.247-3.121,0-5.228-1.6-5.364-4.122Z" transform="translate(8.687 1.235)" fill="#fff"/>
  <path id="Tracciato_33789" data-name="Tracciato 33789" d="M83.77,19.3v2.409h1.951v1.654H83.77v5.611c0,.872.391,1.278,1.248,1.278a6.632,6.632,0,0,0,.693-.048v1.644a5.829,5.829,0,0,1-1.17.1c-2.077,0-2.887-.774-2.887-2.748V23.363H80.163V21.708h1.492V19.3Z" transform="translate(10.066 1.412)" fill="#fff"/>
  <path id="Tracciato_33790" data-name="Tracciato 33790" d="M86.065,26.545c0-3.2,1.9-5.214,4.866-5.214S95.8,23.343,95.8,26.545s-1.882,5.214-4.867,5.214S86.065,29.757,86.065,26.545Zm7.587,0c0-2.2-1.015-3.493-2.721-3.493s-2.72,1.306-2.72,3.493c0,2.205,1.014,3.492,2.72,3.492s2.721-1.287,2.721-3.492Z" transform="translate(10.852 1.664)" fill="#fff"/>
  <path id="Tracciato_33791" data-name="Tracciato 33791" d="M96.186,21.454h2.008v1.732h.049a2.444,2.444,0,0,1,2.468-1.839,3.272,3.272,0,0,1,.722.078V23.38a2.966,2.966,0,0,0-.946-.126,2.131,2.131,0,0,0-1.64.67,2.1,2.1,0,0,0-.554,1.672v6.037H96.186Z" transform="translate(12.199 1.666)" fill="#fff"/>
  <path id="Tracciato_33792" data-name="Tracciato 33792" d="M110.471,28.644c-.283,1.848-2.1,3.115-4.418,3.115-2.984,0-4.837-1.984-4.837-5.166s1.862-5.263,4.748-5.263c2.838,0,4.623,1.934,4.623,5.02v.716h-7.246v.126a2.638,2.638,0,0,0,.724,2.059,2.683,2.683,0,0,0,2.036.824,2.323,2.323,0,0,0,2.369-1.432Zm-7.119-3.038h5.129a2.436,2.436,0,0,0-.689-1.837,2.477,2.477,0,0,0-1.827-.746,2.608,2.608,0,0,0-1.849.752,2.566,2.566,0,0,0-.764,1.832Z" transform="translate(12.869 1.664)" fill="#fff"/>
  <path id="Tracciato_33793" data-name="Tracciato 33793" d="M38.113,8.732a3,3,0,0,1,2.386.919,2.952,2.952,0,0,1,.8,2.413c0,2.143-1.167,3.375-3.181,3.375H35.671V8.732Zm-1.392,5.759H38a2.134,2.134,0,0,0,1.694-.68,2.1,2.1,0,0,0,.536-1.733,2.1,2.1,0,0,0-.545-1.721A2.14,2.14,0,0,0,38,9.68H36.721Z" transform="translate(4.141 0.099)" fill="#fff"/>
  <path id="Tracciato_33794" data-name="Tracciato 33794" d="M41.682,12.734a2.392,2.392,0,0,1,1.132-2.266,2.434,2.434,0,0,1,2.549,0,2.392,2.392,0,0,1,1.132,2.266A2.392,2.392,0,0,1,45.364,15a2.434,2.434,0,0,1-2.552,0,2.392,2.392,0,0,1-1.13-2.27Zm3.777,0c0-1.1-.5-1.739-1.369-1.739s-1.368.642-1.368,1.739.492,1.743,1.368,1.743S45.459,13.836,45.459,12.734Z" transform="translate(4.94 0.271)" fill="#fff"/>
  <path id="Tracciato_33795" data-name="Tracciato 33795" d="M52.24,15.257H51.195L50.14,11.529h-.08l-1.05,3.728H47.976l-1.406-5.062h1.021l.914,3.862h.075l1.049-3.862H50.6l1.049,3.862h.08l.91-3.862h1.007Z" transform="translate(5.592 0.281)" fill="#fff"/>
  <path id="Tracciato_33796" data-name="Tracciato 33796" d="M53.853,10.206h.969v.8H54.9a1.529,1.529,0,0,1,1.523-.9,1.667,1.667,0,0,1,1.339.52,1.638,1.638,0,0,1,.427,1.363v3.277H57.18V12.242c0-.813-.356-1.218-1.1-1.218a1.175,1.175,0,0,0-.906.364,1.155,1.155,0,0,0-.312.919v2.961H53.854Z" transform="translate(6.562 0.27)" fill="#fff"/>
  <path id="Tracciato_33797" data-name="Tracciato 33797" d="M59.094,8.437H60.1v7.038H59.094Z" transform="translate(7.26 0.063)" fill="#fff"/>
  <path id="Tracciato_33798" data-name="Tracciato 33798" d="M61.219,12.734a2.392,2.392,0,0,1,1.132-2.266,2.434,2.434,0,0,1,2.549,0,2.392,2.392,0,0,1,1.132,2.266A2.393,2.393,0,0,1,64.9,15a2.434,2.434,0,0,1-2.552,0,2.393,2.393,0,0,1-1.131-2.27Zm3.777,0c0-1.1-.5-1.739-1.369-1.739s-1.368.642-1.368,1.739.492,1.743,1.368,1.743S65,13.836,65,12.734Z" transform="translate(7.542 0.271)" fill="#fff"/>
  <path id="Tracciato_33799" data-name="Tracciato 33799" d="M66.4,13.836c0-.911.684-1.436,1.9-1.511l1.382-.079v-.437c0-.535-.356-.837-1.045-.837-.562,0-.952.2-1.063.563H66.6c.1-.869.927-1.427,2.085-1.427,1.279,0,2,.632,2,1.7v3.459h-.969v-.711h-.08a1.721,1.721,0,0,1-1.533.795,1.549,1.549,0,0,1-1.189-.383,1.524,1.524,0,0,1-.512-1.132Zm3.28-.433V12.98l-1.246.079c-.7.047-1.021.284-1.021.73s.4.721.946.721a1.209,1.209,0,0,0,.9-.275,1.19,1.19,0,0,0,.424-.831Z" transform="translate(8.233 0.271)" fill="#fff"/>
  <path id="Tracciato_33800" data-name="Tracciato 33800" d="M71.348,12.942c0-1.6.829-2.613,2.118-2.613a1.684,1.684,0,0,1,1.565.888h.075V8.437h1.007v7.038h-.965v-.8h-.08a1.774,1.774,0,0,1-1.6.883C72.168,15.558,71.348,14.545,71.348,12.942Zm1.04,0c0,1.074.51,1.72,1.363,1.72s1.373-.655,1.373-1.715-.53-1.72-1.373-1.72-1.363.651-1.363,1.715Z" transform="translate(8.892 0.063)" fill="#fff"/>
  <path id="Tracciato_33801" data-name="Tracciato 33801" d="M79.231,12.734a2.392,2.392,0,0,1,1.132-2.266,2.434,2.434,0,0,1,2.549,0,2.392,2.392,0,0,1,1.132,2.266A2.392,2.392,0,0,1,82.914,15a2.434,2.434,0,0,1-2.552,0,2.392,2.392,0,0,1-1.13-2.27Zm3.777,0c0-1.1-.5-1.739-1.369-1.739s-1.368.642-1.368,1.739.492,1.743,1.368,1.743S83.008,13.836,83.008,12.734Z" transform="translate(9.94 0.271)" fill="#fff"/>
  <path id="Tracciato_33802" data-name="Tracciato 33802" d="M84.669,10.206h.969v.8h.075a1.529,1.529,0,0,1,1.523-.9,1.667,1.667,0,0,1,1.339.52A1.638,1.638,0,0,1,89,11.991v3.277H88V12.242c0-.813-.356-1.218-1.1-1.218a1.175,1.175,0,0,0-.906.364,1.155,1.155,0,0,0-.312.919v2.961H84.669Z" transform="translate(10.665 0.27)" fill="#fff"/>
  <path id="Tracciato_33803" data-name="Tracciato 33803" d="M93.729,9.074v1.283h1.105V11.2H93.729v2.6c0,.53.22.762.721.762a3.389,3.389,0,0,0,.384-.023v.832a3.329,3.329,0,0,1-.548.051c-1.12,0-1.566-.391-1.566-1.367V11.2h-.81v-.841h.81V9.074Z" transform="translate(11.629 0.142)" fill="#fff"/>
  <path id="Tracciato_33804" data-name="Tracciato 33804" d="M95.7,8.437h1v2.789h.08a1.572,1.572,0,0,1,1.556-.907,1.688,1.688,0,0,1,1.326.534,1.659,1.659,0,0,1,.431,1.354v3.268H99.088V12.453c0-.809-.38-1.218-1.091-1.218a1.2,1.2,0,0,0-.943.345,1.177,1.177,0,0,0-.342.938v2.956H95.7Z" transform="translate(12.135 0.063)" fill="#fff"/>
  <path id="Tracciato_33805" data-name="Tracciato 33805" d="M105.3,13.9a2.071,2.071,0,0,1-2.211,1.464A2.326,2.326,0,0,1,101.3,14.6a2.287,2.287,0,0,1-.569-1.847A2.322,2.322,0,0,1,101.3,10.9a2.362,2.362,0,0,1,1.785-.79c1.42,0,2.276.962,2.276,2.552v.349h-3.6v.056a1.331,1.331,0,0,0,.356,1.023,1.354,1.354,0,0,0,1,.427,1.226,1.226,0,0,0,1.214-.614Zm-3.542-1.631h2.577a1.216,1.216,0,0,0-.335-.932,1.236,1.236,0,0,0-.921-.38,1.31,1.31,0,0,0-.939.379,1.289,1.289,0,0,0-.382.932Z" transform="translate(12.801 0.271)" fill="#fff"/>
</svg>
