<svg id="app-gallery" xmlns="http://www.w3.org/2000/svg" width="148" height="43" viewBox="0 0 148 43">
  <g id="路径_743" transform="translate(-2.1 -2.1)">
    <path d="M 142.7212066650391 44.59999847412109 L 141.7342224121094 44.59999847412109 L 140.5122222900391 44.59999847412109 L 10.51282596588135 44.59999847412109 L 9.525866508483887 44.59999847412109 C 8.760346412658691 44.59999847412109 8.118125915527344 44.54219818115234 7.562526226043701 44.42329788208008 L 7.559185981750488 44.42257690429688 L 7.555826187133789 44.42189788818359 C 6.85244607925415 44.28139877319336 6.294946193695068 44.10115814208984 5.801326274871826 43.85463714599609 C 5.2880859375 43.59832000732422 4.809986114501953 43.25074005126953 4.380326271057129 42.82155990600586 C 3.950646162033081 42.39241790771484 3.602686166763306 41.91493988037109 3.346086025238037 41.40237808227539 C 3.063068151473999 40.83702087402344 2.863118648529053 40.24093627929688 2.782828330993652 39.72344589233398 L 2.766946077346802 39.60474014282227 C 2.68108606338501 38.96415710449219 2.600006103515625 38.3591194152832 2.600006103515625 37.72991943359375 L 2.600006103515625 36.69715881347656 L 2.600006103515625 10.45589828491211 L 2.600006103515625 9.470078468322754 C 2.600006103515625 8.705558776855469 2.65786600112915 8.064218521118164 2.776885986328125 7.509458541870117 L 2.780506134033203 7.492518424987793 L 2.782966136932373 7.475378513336182 C 2.857466220855713 6.954538345336914 3.041666030883789 6.405738353729248 3.346086025238037 5.797618389129639 C 3.602686166763306 5.285058498382568 3.950646162033081 4.807578563690186 4.380306243896484 4.378458499908447 C 4.809986114501953 3.94925856590271 5.2880859375 3.601678371429443 5.801326274871826 3.345358371734619 C 6.410366058349609 3.041198492050171 6.95996618270874 2.857178449630737 7.481525897979736 2.782758474349976 L 7.601206302642822 2.766798496246338 C 8.242706298828125 2.681018590927124 8.84864616394043 2.599998474121094 9.478846549987793 2.599998474121094 L 10.46584606170654 2.599998474121094 L 141.6871795654297 2.599998474121094 L 142.72119140625 2.599998474121094 C 143.4670867919922 2.599998474121094 144.0746612548828 2.654918432235718 144.6911926269531 2.778098583221436 L 144.7047882080078 2.780798435211182 L 144.7185211181641 2.782758474349976 C 145.2391510009766 2.85704231262207 145.7876434326172 3.040523529052734 146.3953094482422 3.34366774559021 C 147.4352416992188 3.884715557098389 148.2635650634766 4.71270227432251 148.8576049804688 5.804914951324463 C 149.0946502685547 6.280320167541504 149.2733306884766 6.816637992858887 149.4190673828125 7.490498542785645 C 149.5124816894531 8.190234184265137 149.6000061035156 8.851947784423828 149.6000061035156 9.517038345336914 L 149.6000061035156 10.50283813476562 L 149.6000061035156 11.72335815429688 L 149.6000061035156 35.52357864379883 L 149.6000061035156 36.69715881347656 L 149.6000061035156 37.72991943359375 C 149.6000061035156 38.3590202331543 149.5189514160156 38.96393966674805 149.4331207275391 39.60439682006836 L 149.4164276123047 39.72927856445312 C 149.3425598144531 40.24541854858398 149.1583709716797 40.79421997070312 148.8539428710938 41.40239715576172 C 148.5973663330078 41.9149169921875 148.2493896484375 42.39241790771484 147.8197326660156 42.82157897949219 C 147.3899993896484 43.25079727172852 146.9119110107422 43.59835815429688 146.3987274169922 43.85463714599609 C 145.8326721191406 44.1373291015625 145.2359008789062 44.33706665039062 144.7177734375 44.41731643676758 L 144.5988311767578 44.43319702148438 C 143.9573211669922 44.51897811889648 143.3513793945312 44.59999847412109 142.7212066650391 44.59999847412109 Z" stroke="none"/>
    <path d="M 142.7212066650391 44.09999847412109 C 143.3180999755859 44.09999847412109 143.9080200195312 44.0211181640625 144.5325622558594 43.93761825561523 L 144.6459655761719 43.9224739074707 C 145.1067657470703 43.85040664672852 145.66357421875 43.66289901733398 146.1753387451172 43.40731811523438 C 146.6403656005859 43.17507934570312 147.0747528076172 42.85897827148438 147.4663848876953 42.46781921386719 C 147.8579406738281 42.07671737670898 148.1743621826172 41.64293670654297 148.4068298339844 41.1786003112793 C 148.6857452392578 40.62136077880859 148.8540802001953 40.12420272827148 148.9213562011719 39.65898132324219 L 148.9375610351562 39.53799819946289 C 149.0211029052734 38.9145393371582 149.1000061035156 38.32565689086914 149.1000061035156 37.72991943359375 L 149.1000061035156 9.517038345336914 C 149.1000061035156 8.891264915466309 149.0162963867188 8.252254486083984 148.9261627197266 7.576911449432373 C 148.7911224365234 6.957891464233398 148.6279602050781 6.466887950897217 148.4141998291016 6.036178588867188 C 147.86962890625 5.038139343261719 147.1142120361328 4.282292366027832 146.1684265136719 3.789244413375854 C 145.6110076904297 3.511515378952026 145.1135711669922 3.344185829162598 144.6479034423828 3.277758359909058 L 144.5932464599609 3.268398523330688 C 144.0102386474609 3.151938438415527 143.4328918457031 3.099998474121094 142.72119140625 3.099998474121094 L 9.478846549987793 3.099998474121094 C 8.881926536560059 3.099998474121094 8.292006492614746 3.178878545761108 7.667466163635254 3.262398481369019 L 7.549194812774658 3.278181791305542 C 7.082472324371338 3.345165014266968 6.583783626556396 3.513478994369507 6.024725914001465 3.792678356170654 C 5.559646129608154 4.024938583374023 5.125266075134277 4.341038703918457 4.733645915985107 4.732218265533447 C 4.342086315155029 5.123298645019531 4.025686264038086 5.557038307189941 3.793206214904785 6.021438598632812 C 3.51322603225708 6.580698490142822 3.344686031341553 7.07943868637085 3.277926206588745 7.546178340911865 L 3.265766143798828 7.614338397979736 C 3.154226064682007 8.134218215942383 3.100006103515625 8.741238594055176 3.100006103515625 9.470078468322754 L 3.100006103515625 37.72991943359375 C 3.100006103515625 38.32577896118164 3.178946018218994 38.91475677490234 3.262506008148193 39.5383186340332 L 3.277733325958252 39.65209197998047 C 3.349888801574707 40.11205673217773 3.537495374679565 40.66777420043945 3.793206214904785 41.17855834960938 C 4.025686264038086 41.64295959472656 4.342086315155029 42.07669830322266 4.733665943145752 42.46780014038086 C 5.125266075134277 42.85895919799805 5.559646129608154 43.1750602722168 6.02470588684082 43.40731811523438 C 6.477506160736084 43.63343811035156 6.99514627456665 43.8000373840332 7.65376615524292 43.93159866333008 L 7.667166233062744 43.93435668945312 C 8.187946319580078 44.04581832885742 8.79594612121582 44.09999847412109 9.525866508483887 44.09999847412109 L 142.7212066650391 44.09999847412109 M 142.7212066650391 45.09999847412109 C 142.3922119140625 45.09999847412109 142.063232421875 45.09999847412109 141.7342224121094 45.09999847412109 L 10.51282596588135 45.09999847412109 C 10.18384647369385 45.09999847412109 9.854846000671387 45.09999847412109 9.525866508483887 45.09999847412109 C 8.820865631103516 45.09999847412109 8.115885734558105 45.05303955078125 7.457886219024658 44.9122200012207 C 6.752906322479248 44.77139663696289 6.141926288604736 44.5836181640625 5.577926158905029 44.30195999145508 C 5.013946056365967 44.02029800415039 4.496946334838867 43.64476013183594 4.026966094970703 43.17531967163086 C 3.556966066360474 42.70589828491211 3.180986166000366 42.18951797485352 2.898986101150513 41.62619781494141 C 2.616986036300659 41.0628776550293 2.382006168365479 40.40567779541016 2.288006067276001 39.79541778564453 C 2.194006204605103 39.09125900268555 2.100006103515625 38.43405914306641 2.100006103515625 37.72991943359375 C 2.100006103515625 37.49519729614258 2.100006103515625 36.69715881347656 2.100006103515625 36.69715881347656 L 2.100006103515625 10.45589828491211 C 2.100006103515625 10.45589828491211 2.100006103515625 9.704798698425293 2.100006103515625 9.470078468322754 C 2.100006103515625 8.765938758850098 2.147006034851074 8.061798095703125 2.288006067276001 7.404578685760498 C 2.382006168365479 6.747378349304199 2.616986036300659 6.137118339538574 2.898986101150513 5.573798656463623 C 3.180986166000366 5.010478496551514 3.556966066360474 4.494098663330078 4.026966094970703 4.024678707122803 C 4.496946334838867 3.555238485336304 5.013946056365967 3.179698467254639 5.577926158905029 2.898038387298584 C 6.141926288604736 2.616378545761108 6.752906322479248 2.381658554077148 7.410906314849854 2.287778377532959 C 8.115885734558105 2.193878412246704 8.773865699768066 2.099998474121094 9.478846549987793 2.099998474121094 L 142.72119140625 2.099998474121094 C 143.4261932373047 2.099998474121094 144.0841522216797 2.146938562393188 144.7891387939453 2.287778377532959 C 145.4471282958984 2.381658554077148 146.0581207275391 2.616378545761108 146.6221008300781 2.898038387298584 C 147.7970733642578 3.508298397064209 148.6900329589844 4.447158336639404 149.3010711669922 5.573798656463623 C 149.5830535888672 6.137118339538574 149.7710266113281 6.747378349304199 149.9120330810547 7.404578685760498 C 150.0060424804688 8.108738899230957 150.1000061035156 8.812878608703613 150.1000061035156 9.517038345336914 C 150.1000061035156 9.845638275146484 150.1000061035156 10.17423820495605 150.1000061035156 10.50283813476562 C 150.1000061035156 10.92531871795654 150.1000061035156 11.30087852478027 150.1000061035156 11.72335815429688 L 150.1000061035156 35.52357864379883 C 150.1000061035156 35.94607925415039 150.1000061035156 36.32161712646484 150.1000061035156 36.69715881347656 C 150.1000061035156 37.07271957397461 150.1000061035156 37.40131759643555 150.1000061035156 37.72991943359375 C 150.1000061035156 38.43405914306641 150.0060119628906 39.09125900268555 149.9120330810547 39.79541778564453 C 149.8180084228516 40.45261764526367 149.5830230712891 41.0628776550293 149.3010711669922 41.62619781494141 C 149.01904296875 42.18951797485352 148.64306640625 42.70589828491211 148.1730804443359 43.17533874511719 C 147.7030792236328 43.64476013183594 147.1860809326172 44.02031707763672 146.6221313476562 44.30195999145508 C 146.0581207275391 44.5836181640625 145.4001312255859 44.81834030151367 144.7891693115234 44.9122200012207 C 144.0841674804688 45.00611877441406 143.4261932373047 45.09999847412109 142.7212066650391 45.09999847412109 Z" stroke="none" fill="#a6a6a6"/>
  </g>
  <path id="路径_744" d="M8.789,11.529H3.572L2.3,15H0L5.076,2H7.238l5.217,13h-2.4ZM4.23,9.746h3.9L6.721,6.037q-.282-.775-.564-1.69c-.188.563-.329,1.127-.564,1.69Z" transform="translate(45.87 17.875)" fill="#fff"/>
  <path id="路径_745" d="M28.594,11.235c0-.7-.047-1.5-.094-2.347h2.115a5.406,5.406,0,0,1,.141,1.221A3.887,3.887,0,0,1,33.717,8.7a3.47,3.47,0,0,1,3.149,2.019,6.47,6.47,0,0,1,.517,2.676,6.985,6.985,0,0,1-.564,2.91,4.036,4.036,0,0,1-1.6,1.831,4.355,4.355,0,0,1-2.4.61,5.368,5.368,0,0,1-1.927-.329v3.99l-2.209.188Zm5.828,4.929a4.154,4.154,0,0,0,.658-2.676,3.828,3.828,0,0,0-.564-2.347,1.827,1.827,0,0,0-1.5-.751,2.416,2.416,0,0,0-1.175.282,6.025,6.025,0,0,0-1.034.8v5.164a4.624,4.624,0,0,0,.752.235,5.212,5.212,0,0,0,.893.094,1.913,1.913,0,0,0,1.974-.8Z" transform="translate(30.765 14.32)" fill="#fff"/>
  <path id="路径_746" d="M50.294,11.235c0-.7-.047-1.5-.094-2.347h2.068a5.406,5.406,0,0,1,.141,1.221A3.887,3.887,0,0,1,55.37,8.7a3.47,3.47,0,0,1,3.149,2.019,6.47,6.47,0,0,1,.517,2.676,6.985,6.985,0,0,1-.564,2.91,4.036,4.036,0,0,1-1.6,1.831,4.355,4.355,0,0,1-2.4.61,5.368,5.368,0,0,1-1.927-.329v3.99l-2.209.188Zm5.828,4.929a4.154,4.154,0,0,0,.658-2.676,3.828,3.828,0,0,0-.564-2.347,1.827,1.827,0,0,0-1.5-.751,2.416,2.416,0,0,0-1.175.282,6.026,6.026,0,0,0-1.034.8v5.164a4.624,4.624,0,0,0,.752.235,5.212,5.212,0,0,0,.893.094,1.945,1.945,0,0,0,1.974-.8Z" transform="translate(19.264 14.32)" fill="#fff"/>
  <path id="路径_747" d="M74.655,14.281a5.375,5.375,0,0,1-2.209-2.253,7.48,7.48,0,0,1-.752-3.474,7.222,7.222,0,0,1,.893-3.709,5.943,5.943,0,0,1,2.4-2.3,7.315,7.315,0,0,1,3.431-.751,11.285,11.285,0,0,1,2.162.235,8.934,8.934,0,0,1,1.88.657l-.564,1.69a8.374,8.374,0,0,0-3.384-.845,5.293,5.293,0,0,0-2.4.563,3.966,3.966,0,0,0-1.6,1.69,6.029,6.029,0,0,0-.564,2.723A7.48,7.48,0,0,0,74.373,11a3.711,3.711,0,0,0,1.363,1.69,4.2,4.2,0,0,0,2.35.61c.423,0,.846-.047,1.316-.094a5.9,5.9,0,0,0,1.222-.329V10.244H77.616V8.507h5.17v5.445a13.857,13.857,0,0,1-2.35.8,10.547,10.547,0,0,1-2.444.282A6.946,6.946,0,0,1,74.655,14.281Z" transform="translate(7.874 17.987)" fill="#fff"/>
  <path id="路径_748" d="M105.193,18.611a5.82,5.82,0,0,1-.141-1.267,4.571,4.571,0,0,1-1.316,1.033,4.191,4.191,0,0,1-1.833.422,3.346,3.346,0,0,1-1.5-.329,2.456,2.456,0,0,1-1.081-.986,3.119,3.119,0,0,1-.423-1.6,2.707,2.707,0,0,1,1.034-2.253,5.245,5.245,0,0,1,3.384-.845,10.435,10.435,0,0,1,1.739.141v-.188a2.317,2.317,0,0,0-.564-1.784,2.083,2.083,0,0,0-1.551-.516,7.752,7.752,0,0,0-1.5.188,8.54,8.54,0,0,0-1.41.516l-.329-1.6a8.933,8.933,0,0,1,3.619-.751,5.29,5.29,0,0,1,2.115.376,2.658,2.658,0,0,1,1.363,1.314,5.77,5.77,0,0,1,.517,2.488v3.849c0,.422.047.986.094,1.831Zm-1.316-1.784a3.242,3.242,0,0,0,1.128-.845V14.2c-.47-.047-.987-.094-1.5-.094a3.074,3.074,0,0,0-1.88.422A1.443,1.443,0,0,0,101.1,15.7a1.339,1.339,0,0,0,.376,1.08,1.377,1.377,0,0,0,1.034.329,3.375,3.375,0,0,0,1.363-.282Z" transform="translate(-6.543 14.267)" fill="#fff"/>
  <path id="路径_749" d="M120.7,11.595V.188L122.909,0V11.219a1.467,1.467,0,0,0,.188.892.73.73,0,0,0,.658.235,2.362,2.362,0,0,0,.564-.094l.282,1.6a4.4,4.4,0,0,1-.752.188,5.184,5.184,0,0,1-.846.094C121.5,14.13,120.7,13.285,120.7,11.595Z" transform="translate(-18.102 18.936)" fill="#fff"/>
  <path id="路径_750" d="M132.5,11.595V.188L134.709,0V11.219a1.467,1.467,0,0,0,.188.892.73.73,0,0,0,.658.235,2.361,2.361,0,0,0,.564-.094l.282,1.6a4.4,4.4,0,0,1-.752.188,5.184,5.184,0,0,1-.846.094C133.252,14.13,132.5,13.285,132.5,11.595Z" transform="translate(-24.357 18.936)" fill="#fff"/>
  <path id="路径_751" d="M150.746,14H144.4c.094,2.019,1.081,3.051,2.914,3.051a4.857,4.857,0,0,0,1.41-.188,6.571,6.571,0,0,0,1.363-.422l.47,1.5a8.877,8.877,0,0,1-3.666.8,5.472,5.472,0,0,1-2.585-.563,3.707,3.707,0,0,1-1.6-1.69,5.721,5.721,0,0,1-.517-2.629,6.361,6.361,0,0,1,.564-2.77,3.922,3.922,0,0,1,1.6-1.784,4.5,4.5,0,0,1,2.35-.61,3.757,3.757,0,0,1,2.3.657,3.97,3.97,0,0,1,1.363,1.69,5.77,5.77,0,0,1,.423,2.347Zm-2.162-1.408a2.947,2.947,0,0,0-.564-1.737,1.75,1.75,0,0,0-1.41-.563,1.991,1.991,0,0,0-1.41.563,3.241,3.241,0,0,0-.752,1.737Z" transform="translate(-29.489 14.327)" fill="#fff"/>
  <path id="路径_752" d="M164.094,11.229c0-.516-.047-1.361-.094-2.441h2.068c.047.282.047.61.094.986a6.64,6.64,0,0,1,.047.892,8.837,8.837,0,0,1,.752-1.08,2.7,2.7,0,0,1,.893-.7,2.364,2.364,0,0,1,1.128-.282,5.765,5.765,0,0,1,.893.094l-.235,1.972a3.632,3.632,0,0,0-.7-.094,2.451,2.451,0,0,0-1.363.422,6.755,6.755,0,0,0-1.269,1.314v6.2h-2.209Z" transform="translate(-41.052 14.373)" fill="#fff"/>
  <path id="路径_753" d="M178.5,22.714a4.921,4.921,0,0,1-.8-.188l.423-1.6a4.884,4.884,0,0,0,.564.141,3.107,3.107,0,0,0,.658.047c.987,0,1.739-.61,2.209-1.878l.141-.376L178.123,9.1h2.4l1.786,5.445a16.166,16.166,0,0,1,.564,2.159c.188-.7.376-1.408.611-2.112L185.314,9.1h2.256L184,18.911a9.948,9.948,0,0,1-1.081,2.253,3.541,3.541,0,0,1-1.363,1.267,4.6,4.6,0,0,1-1.927.422Q178.992,22.784,178.5,22.714Z" transform="translate(-48.312 14.108)" fill="#fff"/>
  <path id="路径_754" d="M0,.2H3.995L3.9,1.186H1.175V3.064H3.713v.892H1.175V6.021H4.042l-.094.986H0Z" transform="translate(45.859 7.044)" fill="#fff"/>
  <path id="路径_755" d="M11.8,3.533,9.688.2H11l1.41,2.441L13.965.2h1.316L13.213,3.486l2.256,3.521H14.106L12.461,4.331,10.816,7.007H9.5Z" transform="translate(40.824 7.044)" fill="#fff"/>
  <path id="路径_756" d="M23.9.192h1.833a3.206,3.206,0,0,1,1.974.516,1.911,1.911,0,0,1,.7,1.5,2.117,2.117,0,0,1-.329,1.174,1.867,1.867,0,0,1-.846.751,2.947,2.947,0,0,1-1.269.282,5.765,5.765,0,0,1-.893-.094V6.952H23.9Zm2.961,3a1.2,1.2,0,0,0,.376-.939.94.94,0,0,0-.376-.892,2.364,2.364,0,0,0-1.128-.282h-.658V3.478c.235.047.47.047.658.094A1.642,1.642,0,0,0,26.861,3.2Z" transform="translate(33.192 7.052)" fill="#fff"/>
  <path id="路径_757" d="M35.9.2h1.175V5.974h2.82L39.8,6.96H35.9Z" transform="translate(26.832 7.044)" fill="#fff"/>
  <path id="路径_758" d="M46.494,6.57A3,3,0,0,1,45.366,5.4a3.4,3.4,0,0,1-.376-1.784,4.231,4.231,0,0,1,.423-1.878A3.056,3.056,0,0,1,46.635.514a3.691,3.691,0,0,1,1.88-.422A3.994,3.994,0,0,1,50.3.514a3,3,0,0,1,1.128,1.174A3.4,3.4,0,0,1,51.8,3.472a4.231,4.231,0,0,1-.423,1.878A3.056,3.056,0,0,1,50.16,6.57a3.627,3.627,0,0,1-1.833.422A2.962,2.962,0,0,1,46.494,6.57Zm3.008-.8a2.321,2.321,0,0,0,.752-.892,3.245,3.245,0,0,0,.235-1.314,3.245,3.245,0,0,0-.235-1.314,1.681,1.681,0,0,0-.7-.892A1.549,1.549,0,0,0,48.374.984a2.279,2.279,0,0,0-1.222.329,2.1,2.1,0,0,0-.752.939,3.03,3.03,0,0,0-.235,1.267A4.068,4.068,0,0,0,46.4,4.833a2,2,0,0,0,.7.939A2.123,2.123,0,0,0,48.28,6.1,2.483,2.483,0,0,0,49.5,5.772Z" transform="translate(22.019 7.106)" fill="#fff"/>
  <path id="路径_759" d="M62.047.192h2.115A2.867,2.867,0,0,1,65.9.661a1.6,1.6,0,0,1,.611,1.314,1.648,1.648,0,0,1-.235.939,3.546,3.546,0,0,1-.517.657,3,3,0,0,1-.658.376l2.068,3H65.807L64.021,4.276h-.846V6.952H62ZM63.88,3.384a1.38,1.38,0,0,0,.752-.188,1.25,1.25,0,0,0,.517-.469,1.323,1.323,0,0,0,.188-.7.812.812,0,0,0-.329-.751,1.653,1.653,0,0,0-.94-.235h-.846V3.384Z" transform="translate(12.998 7.052)" fill="#fff"/>
  <path id="路径_760" d="M75.1.2h3.995L79,1.186H76.275V3.064h2.538v.892H76.275V6.021h2.867l-.094.986H75.1Z" transform="translate(6.055 7.044)" fill="#fff"/>
  <path id="路径_761" d="M92.8.2h1.175V6.96H92.8Z" transform="translate(-3.326 7.044)" fill="#fff"/>
  <path id="路径_762" d="M99.515,1.186H97.4L97.494.2h5.264l-.094.986h-2.021V7.007H99.468Z" transform="translate(-5.764 7.044)" fill="#fff"/>
  <path id="路径_763" d="M117.994,6.57A3,3,0,0,1,116.866,5.4a3.4,3.4,0,0,1-.376-1.784,4.231,4.231,0,0,1,.423-1.878A3.056,3.056,0,0,1,118.135.514a3.691,3.691,0,0,1,1.88-.422A3.994,3.994,0,0,1,121.8.514a3,3,0,0,1,1.128,1.174,3.4,3.4,0,0,1,.376,1.784,4.231,4.231,0,0,1-.423,1.878A3.056,3.056,0,0,1,121.66,6.57a3.627,3.627,0,0,1-1.833.422A2.962,2.962,0,0,1,117.994,6.57Zm3.055-.8a2.322,2.322,0,0,0,.752-.892,3.245,3.245,0,0,0,.235-1.314,3.245,3.245,0,0,0-.235-1.314,1.681,1.681,0,0,0-.705-.892,1.931,1.931,0,0,0-1.222-.329,2.279,2.279,0,0,0-1.222.329,2.1,2.1,0,0,0-.752.939,3.03,3.03,0,0,0-.235,1.267A4.069,4.069,0,0,0,117.9,4.88a2,2,0,0,0,.7.939,2.123,2.123,0,0,0,1.175.329A3.637,3.637,0,0,0,121.049,5.772Z" transform="translate(-15.877 7.106)" fill="#fff"/>
  <path id="路径_764" d="M133.6.2h1.363L138.3,5.458c-.047-.516-.047-.939-.047-1.361V.2h1.081V6.96h-1.316l-3.384-5.352c.047.61.047,1.127.047,1.6V6.913H133.6Z" transform="translate(-24.95 7.044)" fill="#fff"/>
  <path id="形状_1_拷贝_25" d="M8.037,0C2.162,0,0,2.159,0,8.027V20.514c0,5.868,2.162,8.027,8.037,8.027h12.5c5.875,0,8.037-2.159,8.037-8.027V8.027C28.622,2.159,26.46,0,20.586,0Z" transform="translate(8.84 7.19)" fill="#c00020"/>
  <path id="路径_766" d="M9.291,30.447h.752V34.2H9.291V32.7H7.552v1.5H6.8V30.447h.752v1.5H9.244v-1.5Zm4.277,2.112c0,.61-.282.939-.846.939s-.846-.329-.846-.939V30.447h-.752v2.112a1.472,1.472,0,0,0,1.6,1.643,1.487,1.487,0,0,0,1.6-1.69V30.4h-.752Zm8.742.422-.846-2.535h-.611l-.846,2.582-.846-2.582h-.8L19.678,34.2h.611l.846-2.441.846,2.441h.611l1.316-3.755h-.8Zm3.008-.422h1.363V31.9H25.318v-.751h2.021v-.7H24.566V34.2h2.82v-.7H25.318Zm2.961,1.6h.752V30.4h-.752ZM15.824,33.4l-.329.8h-.752l1.645-3.755h.658L18.691,34.2h-.8l-.329-.8Zm.282-.7h1.128l-.564-1.314Z" transform="translate(5.236 -8.939)" fill="#fff"/>
  <path id="路径_767" d="M25.047,14.941A4.731,4.731,0,0,1,20.3,10.2h.658a4.089,4.089,0,0,0,8.178,0h.658A4.7,4.7,0,0,1,25.047,14.941Z" transform="translate(-1.92 1.778)" fill="#fff"/>
</svg>
