<svg id="google-play" xmlns="http://www.w3.org/2000/svg" xmlns:xlink="http://www.w3.org/1999/xlink" width="149" height="43" viewBox="0 0 149 43">
  <defs>
    <linearGradient id="linear-gradient" x1="0.915" y1="6.632" x2="-0.376" y2="5.96" gradientUnits="objectBoundingBox">
      <stop offset="0" stop-color="#00a0ff"/>
      <stop offset="0.007" stop-color="#00a1ff"/>
      <stop offset="0.26" stop-color="#00beff"/>
      <stop offset="0.512" stop-color="#00d2ff"/>
      <stop offset="0.76" stop-color="#00dfff"/>
      <stop offset="1" stop-color="#00e3ff"/>
    </linearGradient>
    <linearGradient id="linear-gradient-2" x1="1.077" y1="17.2" x2="-1.307" y2="17.2" gradientUnits="objectBoundingBox">
      <stop offset="0" stop-color="#ffe000"/>
      <stop offset="0.409" stop-color="#ffbd00"/>
      <stop offset="0.775" stop-color="orange"/>
      <stop offset="1" stop-color="#ff9c00"/>
    </linearGradient>
    <linearGradient id="linear-gradient-3" x1="0.864" y1="10.839" x2="-0.499" y2="9.074" gradientUnits="objectBoundingBox">
      <stop offset="0" stop-color="#ff3a44"/>
      <stop offset="1" stop-color="#c31162"/>
    </linearGradient>
    <linearGradient id="linear-gradient-4" x1="-0.186" y1="13.614" x2="0.423" y2="12.822" gradientUnits="objectBoundingBox">
      <stop offset="0" stop-color="#32a071"/>
      <stop offset="0.068" stop-color="#2da771"/>
      <stop offset="0.476" stop-color="#15cf74"/>
      <stop offset="0.801" stop-color="#06e775"/>
      <stop offset="1" stop-color="#00f076"/>
    </linearGradient>
  </defs>
  <g id="Tracciato_33806" data-name="Tracciato 33806" transform="translate(-10 -10)">
    <path d="M 153.4814910888672 52.5 L 15.51852512359619 52.5 C 12.70440483093262 52.5 10.50000476837158 50.35863876342773 10.50000476837158 47.625 L 10.50000476837158 15.375 C 10.50000476837158 12.64136028289795 12.70440483093262 10.5 15.51852512359619 10.5 L 153.4814910888672 10.5 C 156.2955780029297 10.5 158.4999694824219 12.64136028289795 158.4999694824219 15.375 L 158.4999694824219 47.625 C 158.4999694824219 50.31307983398438 156.2486877441406 52.5 153.4814910888672 52.5 Z" stroke="none"/>
    <path d="M 153.4814910888672 52 C 155.9729919433594 52 157.9999694824219 50.03738021850586 157.9999694824219 47.625 L 157.9999694824219 15.375 C 157.9999694824219 12.92171955108643 156.0151977539062 11 153.4814910888672 11 L 15.51852512359619 11 C 12.98478507995605 11 11.00000476837158 12.92171955108643 11.00000476837158 15.375 L 11.00000476837158 47.625 C 11.00000476837158 50.07828140258789 12.98478507995605 52 15.51852512359619 52 L 153.4814910888672 52 M 153.4814910888672 53 L 15.51852512359619 53 C 12.42814445495605 53 10.00000476837158 50.6349983215332 10.00000476837158 47.625 L 10.00000476837158 15.375 C 10.00000476837158 12.36499977111816 12.42814445495605 10 15.51852512359619 10 L 153.4814910888672 10 C 156.5718078613281 10 158.9999694824219 12.36499977111816 158.9999694824219 15.375 L 158.9999694824219 47.625 C 158.9999694824219 50.52751922607422 156.5718078613281 53 153.4814910888672 53 Z" stroke="none" fill="#a6a6a6"/>
  </g>
  <path id="Tracciato_33808" data-name="Tracciato 33808" d="M58.036,20.516a2.969,2.969,0,0,1-.774,2.192,3.495,3.495,0,0,1-4.866,0,3.417,3.417,0,0,1,0-4.822,3.267,3.267,0,0,1,2.433-.986,2.967,2.967,0,0,1,1.327.329,2.4,2.4,0,0,1,1,.767l-.553.548a2.071,2.071,0,0,0-1.77-.767,2.21,2.21,0,0,0-1.77.767,2.248,2.248,0,0,0-.774,1.863,2.248,2.248,0,0,0,.774,1.863,2.861,2.861,0,0,0,1.77.767,2.437,2.437,0,0,0,1.88-.767,1.807,1.807,0,0,0,.553-1.315H54.829v-.767h3.207S58.036,20.407,58.036,20.516Z" transform="translate(-5.611 -9.86)" fill="#fff" stroke="#fff" stroke-miterlimit="10" stroke-width="0.2"/>
  <path id="Tracciato_33809" data-name="Tracciato 33809" d="M62.371,17.767H59.385v2.082H62.15v.767H59.385V22.7h2.986v.877H58.5V17h3.871Z" transform="translate(-4.858 -9.851)" fill="#fff" stroke="#fff" stroke-miterlimit="10" stroke-width="0.2"/>
  <path id="Tracciato_33810" data-name="Tracciato 33810" d="M65.565,23.575H64.68V17.767H62.8V17h4.645v.767h-1.88Z" transform="translate(-4.402 -9.851)" fill="#fff" stroke="#fff" stroke-miterlimit="10" stroke-width="0.2"/>
  <path id="Tracciato_33811" data-name="Tracciato 33811" d="M69.9,23.575V17h.885v6.575Z" transform="translate(-3.649 -9.851)" fill="#fff" stroke="#fff" stroke-miterlimit="10" stroke-width="0.2"/>
  <path id="Tracciato_33812" data-name="Tracciato 33812" d="M74.365,23.575H73.48V17.767H71.6V17h4.535v.767h-1.88v5.808Z" transform="translate(-3.469 -9.851)" fill="#fff" stroke="#fff" stroke-miterlimit="10" stroke-width="0.2"/>
  <path id="Tracciato_33813" data-name="Tracciato 33813" d="M84.162,22.708a3.495,3.495,0,0,1-4.867,0,3.417,3.417,0,0,1,0-4.822,3.495,3.495,0,0,1,4.867,0,3.417,3.417,0,0,1,0,4.822Zm-4.2-.548a2.621,2.621,0,0,0,1.77.767,2.21,2.21,0,0,0,1.77-.767,2.632,2.632,0,0,0,.774-1.863,2.248,2.248,0,0,0-.774-1.863,2.621,2.621,0,0,0-1.77-.767,2.21,2.21,0,0,0-1.77.767,2.632,2.632,0,0,0-.774,1.863A2.248,2.248,0,0,0,79.959,22.16Z" transform="translate(-2.759 -9.86)" fill="#fff" stroke="#fff" stroke-miterlimit="10" stroke-width="0.2"/>
  <path id="Tracciato_33814" data-name="Tracciato 33814" d="M85.6,23.575V17h1L89.8,22.151h0V17h.885v6.575H89.8l-3.429-5.37h0v5.37Z" transform="translate(-1.985 -9.851)" fill="#fff" stroke="#fff" stroke-miterlimit="10" stroke-width="0.2"/>
  <path id="Tracciato_33815" data-name="Tracciato 33815" d="M80.963,32.251a4.632,4.632,0,0,0-4.756,4.712,4.7,4.7,0,0,0,4.756,4.712,4.632,4.632,0,0,0,4.756-4.712A4.568,4.568,0,0,0,80.963,32.251Zm0,7.452a2.856,2.856,0,0,1,0-5.7,2.665,2.665,0,0,1,2.654,2.849A2.731,2.731,0,0,1,80.963,39.7ZM70.677,32.251a4.632,4.632,0,0,0-4.756,4.712,4.7,4.7,0,0,0,4.756,4.712,4.632,4.632,0,0,0,4.756-4.712A4.568,4.568,0,0,0,70.677,32.251Zm0,7.452a2.856,2.856,0,0,1,0-5.7,2.665,2.665,0,0,1,2.654,2.849A2.731,2.731,0,0,1,70.677,39.7ZM58.4,33.675v1.973h4.756a4.126,4.126,0,0,1-1.106,2.521,4.918,4.918,0,0,1-3.65,1.425,5.125,5.125,0,0,1-5.2-5.26,5.193,5.193,0,0,1,5.2-5.26A5.511,5.511,0,0,1,62.05,30.5l1.438-1.425A7.121,7.121,0,0,0,58.51,27.1a7.428,7.428,0,0,0-7.41,7.233,7.428,7.428,0,0,0,7.41,7.233A6.394,6.394,0,0,0,63.6,39.483a6.562,6.562,0,0,0,1.77-4.6,4.072,4.072,0,0,0-.111-1.205Zm50.213,1.534a4.29,4.29,0,0,0-3.982-2.959,4.432,4.432,0,0,0-4.424,4.712,4.606,4.606,0,0,0,4.645,4.712,4.545,4.545,0,0,0,3.871-2.082l-1.548-1.1a2.7,2.7,0,0,1-2.323,1.315,2.4,2.4,0,0,1-2.323-1.425l6.3-2.63ZM102.2,36.744A2.672,2.672,0,0,1,104.632,34a1.96,1.96,0,0,1,1.77.986ZM97,41.237h2.1v-13.7H97Zm-3.318-8h0a3.657,3.657,0,0,0-2.544-1.1A4.729,4.729,0,0,0,86.6,36.853a4.558,4.558,0,0,0,4.535,4.6,3.187,3.187,0,0,0,2.433-1.1h.111v.658a2.516,2.516,0,0,1-4.867,1.1l-1.77.767a4.562,4.562,0,0,0,4.2,2.74c2.433,0,4.424-1.425,4.424-4.822V32.47H93.682ZM91.249,39.7a2.856,2.856,0,0,1,0-5.7,2.646,2.646,0,0,1,2.544,2.849A2.646,2.646,0,0,1,91.249,39.7Zm26.987-12.164h-4.977v13.7h2.1V36.086h2.876a4.281,4.281,0,1,0,0-8.548Zm.111,6.575H115.36V29.4h2.986a2.419,2.419,0,0,1,2.433,2.3A2.519,2.519,0,0,1,118.346,34.114Zm12.719-1.973a3.723,3.723,0,0,0-3.65,2.082l1.88.767a1.958,1.958,0,0,1,1.88-.986,2.074,2.074,0,0,1,2.212,1.753v.11a4.418,4.418,0,0,0-2.1-.548c-1.991,0-3.982,1.1-3.982,3.068a3.229,3.229,0,0,0,3.429,3.068,3.121,3.121,0,0,0,2.654-1.315h.111v1.1h1.991v-5.26A4.173,4.173,0,0,0,131.066,32.141Zm-.221,7.562c-.664,0-1.659-.329-1.659-1.205,0-1.1,1.217-1.425,2.212-1.425a4.309,4.309,0,0,1,1.88.438A2.568,2.568,0,0,1,130.844,39.7Zm11.613-7.233-2.323,5.918h-.111l-2.433-5.918h-2.212l3.65,8.329-2.1,4.6h2.1L144.67,32.47Zm-18.581,8.767h2.1v-13.7h-2.1Z" transform="translate(-5.643 -8.883)" fill="#fff"/>
  <path id="Tracciato_33816" data-name="Tracciato 33816" d="M20.453,17.5a2.156,2.156,0,0,0-.553,1.534V43.253a2.156,2.156,0,0,0,.553,1.534l.111.11L34.278,31.308v-.219L20.453,17.5Z" transform="translate(-8.951 -9.802)" fill="url(#linear-gradient)"/>
  <path id="Tracciato_33817" data-name="Tracciato 33817" d="M37.435,35.115,32.9,30.622v-.329L37.435,25.8l.111.11,5.42,3.068c1.548.877,1.548,2.3,0,3.178l-5.53,2.959Z" transform="translate(-7.572 -9.007)" fill="url(#linear-gradient-2)"/>
  <path id="Tracciato_33818" data-name="Tracciato 33818" d="M38.871,34.6,34.225,30,20.4,43.7c.553.548,1.327.548,2.323.11L38.871,34.6" transform="translate(-8.898 -8.604)" fill="url(#linear-gradient-3)"/>
  <path id="Tracciato_33819" data-name="Tracciato 33819" d="M38.871,26.627l-16.148-9.1a1.805,1.805,0,0,0-2.323.11L34.225,31.23Z" transform="translate(-8.898 -9.834)" fill="url(#linear-gradient-4)"/>
  <path id="Tracciato_33820" data-name="Tracciato 33820" d="M38.76,34.1,22.723,43.086a1.822,1.822,0,0,1-2.212,0h0l-.111.11h0l.111.11h0a1.822,1.822,0,0,0,2.212,0L38.76,34.1Z" transform="translate(-8.898 -8.211)" opacity="0.2"/>
  <path id="Tracciato_33821" data-name="Tracciato 33821" d="M20.442,42.434A2.129,2.129,0,0,1,20,40.9v.11a2.156,2.156,0,0,0,.553,1.534v-.11Z" transform="translate(-8.94 -7.559)" opacity="0.12"/>
  <path id="Tracciato_33822" data-name="Tracciato 33822" d="M42.53,31.425,37,34.493l.111.11,5.42-3.068A1.822,1.822,0,0,0,43.636,30h0C43.636,30.548,43.194,30.986,42.53,31.425Z" transform="translate(-7.138 -8.604)" opacity="0.12"/>
  <path id="Tracciato_33823" data-name="Tracciato 33823" d="M22.765,17.641,44.333,29.806c.664.438,1.106.877,1.106,1.425h0A1.822,1.822,0,0,0,44.333,29.7L22.765,17.532C21.217,16.655,20,17.422,20,19.176v.11C20,17.532,21.217,16.765,22.765,17.641Z" transform="translate(-8.94 -9.834)" fill="#fff" opacity="0.25"/>
</svg>
