<svg xmlns="http://www.w3.org/2000/svg" width="41" height="41" viewBox="0 0 41 41">
    <defs>
        <style>
            .cls-1{fill:#fff}
        </style>
    </defs>
    <g id="Icon_Chat" data-name="Icon / Chat" transform="translate(-2 -2)">
        <g id="Layer_2" data-name="Layer 2" transform="translate(2 2)">
            <path id="Path_20489" data-name="Path 20489" class="cls-1" d="M21.5 1A20.5 20.5 0 1 0 42 21.5 20.5 20.5 0 0 0 21.5 1zm0 39.048A18.548 18.548 0 1 1 40.048 21.5 18.548 18.548 0 0 1 21.5 40.048z" transform="translate(-1 -1)"/>
            <path id="Subtraction" class="cls-1" d="M20.838 25a.956.956 0 0 1-.577-.192L16.237 21.8h-5.015a2.575 2.575 0 0 1-2.568-2.57v-2.642l-3.27 2.451a.959.959 0 0 1-1.007.091.957.957 0 0 1-.532-.861v-2.885h-.96A2.888 2.888 0 0 1 0 12.5V2.885A2.888 2.888 0 0 1 2.885 0h13.461a2.888 2.888 0 0 1 2.884 2.885v5.77h3.2A2.574 2.574 0 0 1 25 11.222v8.008a2.574 2.574 0 0 1-2.566 2.57H21.8v2.241a.961.961 0 0 1-.962.962zM19.23 10.578V12.5a2.888 2.888 0 0 1-2.885 2.885l-5.768.043v3.8a.645.645 0 0 0 .644.641h5.335a.951.951 0 0 1 .578.193l2.742 2.051v-1.276a.962.962 0 0 1 .961-.961h1.6a.646.646 0 0 0 .645-.646v-8.008a.646.646 0 0 0-.645-.644zm-4.75-4.514a1.485 1.485 0 1 0 1.486 1.486 1.487 1.487 0 0 0-1.486-1.486zm-4.951 0a1.485 1.485 0 1 0 1.485 1.486 1.487 1.487 0 0 0-1.485-1.486zm-4.95 0A1.485 1.485 0 1 0 6.065 7.55a1.487 1.487 0 0 0-1.486-1.486z" transform="translate(8 8)"/>
        </g>
    </g>
</svg>
