<svg id="logo-fineco" xmlns="http://www.w3.org/2000/svg" width="150" height="41" viewBox="0 0 150 41">
  <path id="Tracciato_33009" data-name="Tracciato 33009" d="M139.3,41H10.7a10.64,10.64,0,0,1-7.6-3.082A10.483,10.483,0,0,1,0,30.377V10.523A10.485,10.485,0,0,1,3.14,3.046,10.64,10.64,0,0,1,10.7,0H139.3a10.641,10.641,0,0,1,7.56,3.047A10.484,10.484,0,0,1,150,10.523V30.377a10.485,10.485,0,0,1-3.14,7.476A10.64,10.64,0,0,1,139.3,40.9" transform="translate(0 0)" fill="#00549f"/>
  <path id="Tracciato_33014" data-name="Tracciato 33014" d="M14.3,9.7H30.4v3.177h-12v6.056H29.8v3.177H18.4v9.232H14.3Z" transform="translate(0 -0.069)" fill="#fdc82f"/>
  <rect id="Rettangolo_2810" data-name="Rettangolo 2810" width="4.1" height="21.681" transform="translate(35 9.63)" fill="#fdc82f"/>
  <path id="Tracciato_33015" data-name="Tracciato 33015" d="M44.4,31.341V9.7h5.1l6.8,9.232a56.417,56.417,0,0,1,4.5,7.247h.1a81.106,81.106,0,0,1-.4-9.034V9.7h4.1V31.341H60l-6.9-9.53a72.381,72.381,0,0,1-4.7-7.545h-.1c.2,2.78.2,5.658.2,9.232v7.743Z" transform="translate(0 -0.069)" fill="#fdc82f"/>
  <path id="Tracciato_33016" data-name="Tracciato 33016" d="M84.9,22.208H73.5v5.956l12-.1v3.276H69.4V9.7H85.5v3.276h-12v5.956H84.9Z" transform="translate(0 -0.069)" fill="#fdc82f"/>
  <path id="Tracciato_33017" data-name="Tracciato 33017" d="M124.8,9.2c-7.1,0-12.8,4.269-12.8,11.218s5.7,11.218,12.8,11.218,12.8-5.063,12.8-11.218S131.9,9.2,124.8,9.2m0,19.159c-4.8,0-8.7-2.482-8.7-7.942s3.9-7.942,8.7-7.942,8.7,3.574,8.7,7.942-3.9,7.942-8.7,7.942" transform="translate(0 -0.065)" fill="#fdc82f"/>
  <path id="Tracciato_33018" data-name="Tracciato 33018" d="M108.8,27.566a15.2,15.2,0,0,1-4.9.794c-6.2,0-11.2-2.482-11.2-7.842s5-7.842,11.2-7.842a15.1,15.1,0,0,1,5,.794l1-3.276a20.236,20.236,0,0,0-6-.893c-8.5,0-15.4,4.269-15.4,11.218s5.9,11.218,15.4,11.218a20.236,20.236,0,0,0,5.9-.893Z" transform="translate(0 -0.066)" fill="#fdc82f"/>
</svg>
